<svg width="15" height="11" viewBox="0 0 15 11" fill="none" xmlns="http://www.w3.org/2000/svg">
<path d="M0.31309 0.847497C2.37178 2.4663 5.98414 5.31427 7.04585 6.20227C7.18838 6.32212 7.34125 6.38305 7.49995 6.38305C7.65833 6.38305 7.81094 6.32269 7.95315 6.20341C9.01577 5.31454 12.6281 2.4663 14.6868 0.847497C14.815 0.746905 14.8346 0.570094 14.7308 0.447115C14.4909 0.162938 14.1333 0 13.7499 0H1.24997C0.866683 0 0.508998 0.162938 0.269145 0.447142C0.165376 0.570094 0.184917 0.746905 0.31309 0.847497Z" fill="#FFD84E"/>
<path d="M14.8187 1.7248C14.708 1.67693 14.5777 1.69363 14.4855 1.76675C12.2024 3.56375 9.28863 5.86714 8.37188 6.63415C7.85733 7.06541 7.14322 7.06541 6.62748 6.63358C5.65031 5.81611 2.3782 3.23336 0.514512 1.76672C0.421729 1.6936 0.291123 1.67747 0.18126 1.72478C0.0708105 1.77241 0 1.87499 0 1.98804V9.28491C0 9.92502 0.560596 10.4455 1.25001 10.4455H13.75C14.4394 10.4455 15 9.92502 15 9.28491V1.98804C15 1.87499 14.9292 1.77214 14.8187 1.7248Z" fill="#FFD84E"/>
</svg>
