<svg width="14" height="14" viewBox="0 0 14 14" fill="none" xmlns="http://www.w3.org/2000/svg">
<path d="M9.16458 9.24002L10.2846 8.12002C10.4354 7.97104 10.6263 7.86906 10.834 7.82646C11.0417 7.78386 11.2573 7.80246 11.4546 7.88002L12.8196 8.42502C13.019 8.50596 13.19 8.64412 13.311 8.82207C13.432 9.00003 13.4976 9.20983 13.4996 9.42502V11.925C13.4984 12.0714 13.4676 12.2161 13.4091 12.3502C13.3506 12.4844 13.2655 12.6054 13.159 12.7058C13.0525 12.8062 12.9268 12.8841 12.7894 12.9346C12.652 12.9852 12.5058 13.0074 12.3596 13C2.79458 12.405 0.864579 4.30502 0.499579 1.20502C0.482635 1.05279 0.498116 0.898695 0.545003 0.752875C0.59189 0.607056 0.66912 0.472817 0.771612 0.358989C0.874105 0.24516 0.999537 0.154323 1.13966 0.0924524C1.27978 0.0305818 1.43141 -0.00091958 1.58458 2.04345e-05H3.99958C4.21508 0.000658328 4.42547 0.0657542 4.60368 0.186935C4.78188 0.308116 4.91976 0.47984 4.99958 0.680021L5.54458 2.04502C5.62471 2.24156 5.64515 2.45734 5.60335 2.66543C5.56156 2.87351 5.45938 3.06467 5.30958 3.21502L4.18958 4.33502C4.18958 4.33502 4.83458 8.70002 9.16458 9.24002Z" fill="#FFD84E"/>
</svg>
