<svg width="13" height="13" viewBox="0 0 13 13" fill="none" xmlns="http://www.w3.org/2000/svg">
<path d="M13 5.33203C13 6.25805 12.7588 7.17036 12.3024 7.97037C12.1635 8.21397 11.8533 8.29882 11.6098 8.15986C11.3661 8.0209 11.2813 7.71075 11.4203 7.46715C11.7893 6.82018 11.9844 6.08187 11.9844 5.33203C11.9844 2.95196 10.048 1.01562 7.66796 1.01562C5.28789 1.01562 3.35155 2.95196 3.35155 5.33203C3.35155 7.7121 5.28789 9.64844 7.66796 9.64844C8.40868 9.64844 9.13912 9.45783 9.78036 9.09721C10.0248 8.95967 10.3344 9.04648 10.4719 9.29089C10.6094 9.53535 10.5227 9.84496 10.2782 9.98243C9.4853 10.4284 8.58269 10.6641 7.66796 10.6641C6.38632 10.6641 5.20893 10.2094 4.28834 9.45308L0.865656 12.8525C0.766607 12.9509 0.637191 13 0.5078 13C0.377241 13 0.246759 12.95 0.147507 12.85C-0.050134 12.6511 -0.0490168 12.3295 0.14997 12.1319L3.56803 8.73709C2.79905 7.8128 2.33593 6.62553 2.33593 5.33203C2.33593 2.39195 4.72788 0 7.66796 0C10.608 0 13 2.39195 13 5.33203Z" fill="#1E1E1E"/>
</svg>
