<svg width="32" height="32" viewBox="0 0 32 32" fill="none" xmlns="http://www.w3.org/2000/svg">
<path d="M15.7 4C13.8 4 9.10004 4.2 6.60004 6.6C4.80004 8.3 4.10004 10.9 4.00004 14C3.80004 18.9 4.90004 22 6.70004 23.6C7.10004 23.9 8.10004 24.7 10 25.3V27.8C10 27.8 10 28.8 10.6 29C10.7 29 10.8 29.1 10.9 29.1C11.5 29.1 12 28.4 12.7 27.7C13.3 27 13.8 26.5 14.1 26H16.3C18.2 26 22.9 25.8 25.4 23.4C27.2 21.6 27.9 19 27.9 15.7C28 15.2 28 14.6 28 14C27.9 10.3 26.8 7.8 25.3 6.4C24.7 5.9 22.1 4 16.5 4H15.7ZM15.5 5.9H16.4C21.7 5.9 23.7 7.6 23.9 7.8C25.1 8.8 25.8 11 25.9 13.9V14.3C26 14.9 26 15.4 26 15.7C25.9 18.7 25.3 20.7 24.1 22C22 23.9 17.6 24 16.4 24H14.5L12.9 25.8L11.9 26.9L11.7 27.2C11.5 27.4 11.2 27.8 11 27.9V23.4C9.00004 22.9 8.20004 22.2 8.00004 22C6.60004 20.8 5.80004 17.9 6.00004 14V13C6.20004 10.6 6.80004 9 7.80004 7.9C9.90004 6 14.3 5.9 15.5 5.9ZM15.4 8.1C14.9 8.1 14.9 8.8 15.4 8.8C19.1 8.8 22.3 11.3 22.3 16C22.3 16.5 23 16.5 23 16C23 10.9 19.6 8 15.4 8.1ZM11.437 9.025C11.2105 8.99785 10.9822 9.06029 10.801 9.199C9.80104 9.699 8.80004 10.701 9.10004 11.801C9.10004 11.801 9.30004 12.7 10.4 14.6C11 15.5 11.5 16.3 12 16.9C12.5 17.6 13.3 18.4 14.1 19C15.7 20.3 18.2 21.6 19.3 21.9C20.3 22.2 21.4 21.2 21.9 20.2C22.1 19.8 22 19.3 21.6 19C21 18.4 20 17.7 19.3 17.3C18.8 17 18.2 17.2 18 17.5L17.5 18.1C17.3 18.4 16.8 18.4 16.8 18.4C13.5 17.5 12.6 14.1 12.6 14.1C12.6 14.1 12.6 13.7 12.9 13.4L13.5 12.9C13.8 12.7 14 12.1 13.7 11.6C13.5 11.3 13.2 10.7 12.9 10.4C12.6 10 12 9.3 12 9.3C11.8483 9.14807 11.6501 9.05127 11.437 9.025ZM16.1 10.1C15.6 10 15.5 10.8 16 10.8C18.8 11 20.4 12.9 20.3 15.3C20.2 15.8 21 15.8 21 15.3C21.1 12.5 19.3 10.2 16.1 10.1ZM16.4 12C15.9 11.9 15.9 12.7 16.4 12.7C17.6 12.7 18.2 13.4 18.2 14.6C18.3 15.1 19 15.1 19 14.6C18.9 13 18 12 16.4 12Z" fill="#FFD84E"/>
</svg>
