<svg width="32" height="32" viewBox="0 0 32 32" fill="none" xmlns="http://www.w3.org/2000/svg">
<path fill-rule="evenodd" clip-rule="evenodd" d="M24.504 7.50404C23.3967 6.38985 22.0793 5.50643 20.6281 4.90496C19.1769 4.30348 17.6209 3.99591 16.05 4.00004C9.465 4.00004 4.1 9.36004 4.1 15.945C4.09501 18.0418 4.64496 20.1026 5.694 21.918L4 28.109L10.336 26.445C12.088 27.3994 14.0509 27.9003 16.046 27.902H16.051C22.637 27.902 27.996 22.543 28 15.953C28 12.762 26.758 9.76204 24.504 7.50304V7.50404ZM16.05 25.883H16.046C14.2676 25.883 12.5218 25.4054 10.991 24.5L10.628 24.285L6.866 25.27L7.87 21.605L7.636 21.23C6.6406 19.6472 6.11362 17.8149 6.116 15.945C6.116 10.473 10.573 6.02004 16.054 6.02004C17.3584 6.01678 18.6505 6.2723 19.8555 6.77181C21.0605 7.27131 22.1544 8.00488 23.074 8.93004C23.9981 9.85077 24.7306 10.9455 25.2292 12.1509C25.7278 13.3563 25.9826 14.6486 25.979 15.953C25.979 21.43 21.522 25.883 16.049 25.883H16.05ZM21.495 18.445C21.198 18.297 19.729 17.575 19.456 17.477C19.183 17.375 18.983 17.328 18.784 17.625C18.584 17.925 18.014 18.598 17.839 18.797C17.667 18.992 17.491 19.02 17.194 18.871C16.894 18.723 15.933 18.406 14.792 17.387C13.905 16.597 13.304 15.617 13.132 15.32C12.956 15.02 13.112 14.86 13.261 14.71C13.397 14.578 13.561 14.363 13.71 14.187C13.858 14.016 13.91 13.891 14.01 13.691C14.108 13.492 14.058 13.316 13.983 13.168C13.909 13.02 13.312 11.547 13.062 10.949C12.819 10.367 12.573 10.449 12.39 10.438C12.218 10.43 12.019 10.43 11.82 10.43C11.62 10.43 11.296 10.504 11.022 10.805C10.749 11.102 9.979 11.825 9.979 13.293C9.979 14.762 11.049 16.183 11.199 16.383C11.347 16.578 13.304 19.593 16.299 20.887C17.011 21.195 17.565 21.379 17.999 21.516C18.714 21.742 19.366 21.711 19.882 21.636C20.456 21.551 21.647 20.914 21.897 20.215C22.144 19.52 22.144 18.922 22.069 18.797C21.995 18.672 21.796 18.597 21.495 18.445Z" fill="#FFD84E"/>
</svg>
